<!--?xml version="1.0" standalone="no"?-->
              <svg id="sw-js-blob-svg" viewBox="0 0 100 100" xmlns="http://www.w3.org/2000/svg" version="1.1">
                    <defs> 
                        <linearGradient id="sw-gradient" x1="0" x2="1" y1="1" y2="0">
                            <stop id="stop1" stop-color="rgba(55, 100.339, 248, 1)" offset="0%"></stop>
                            <stop id="stop2" stop-color="rgba(251, 168, 31, 1)" offset="100%"></stop>
                        </linearGradient>
                    </defs>
                <path fill="url(#sw-gradient)" d="M10.6,-9.8C17.1,-7.2,28.1,-7.1,29.8,-4.2C31.5,-1.4,24.1,4.1,18.6,7.9C13.1,11.8,9.4,13.9,4.7,17.8C-0.1,21.7,-6,27.3,-10.6,26.7C-15.2,26.1,-18.4,19.3,-22.4,12.8C-26.3,6.2,-30.9,0,-28.2,-3.2C-25.5,-6.4,-15.5,-6.4,-9.6,-9.1C-3.6,-11.7,-1.8,-16.9,0.1,-17C2.1,-17.2,4.1,-12.3,10.6,-9.8Z" width="100%" height="100%" transform="translate(50 50)" stroke-width="0" style="transition: all 0.3s ease 0s;"></path>
              </svg>