<svg xmlns="http://www.w3.org/2000/svg" version="1.1" xmlns:xlink="http://www.w3.org/1999/xlink" xmlns:svgjs="http://svgjs.dev/svgjs" viewBox="0 0 800 800" opacity="0.63"><defs><linearGradient x1="50%" y1="0%" x2="50%" y2="100%" id="ccchaos-grad"><stop stop-color="hsl(206, 75%, 49%)" stop-opacity="1" offset="0%"></stop><stop stop-color="hsl(331, 90%, 56%)" stop-opacity="1" offset="100%"></stop></linearGradient></defs><g stroke-width="2" stroke="url(#ccchaos-grad)" fill="none" stroke-linecap="round"><path d="M108.59 122.73Q125.73 126.96 142.88 127.72 151.45 125.96 160.02 123.14 168.6 119.52 177.17 115.42 185.74 111.19 194.32 107.2 202.89 103.82 211.46 101.33 228.61 100.44 245.75 103.19 254.33 106.41 262.9 110.29 271.47 114.5 280.04 118.67 288.62 122.42 297.19 125.43 314.34 127.63 331.48 126.16 340.06 123.44 348.63 119.88 357.2 115.8 365.77 111.56 374.35 107.54 382.92 104.09 400.07 100.64 417.21 100.78 425.78 102.95 434.36 106.09 442.93 109.92 451.5 114.12 460.08 118.3 468.65 122.11 485.8 126.72 502.94 127.91 511.51 126.36 520.09 123.72 528.66 120.23 537.23 116.18 545.81 111.94 554.38 107.89 562.95 104.37 571.52 101.7 588.67 100.38 605.82 102.71 614.39 105.77 622.96 109.56 631.54 113.73 640.11 117.94 648.68 121.79 657.25 124.96 662.1 134.15 667.7 143.35 673.89 152.54 680.46 161.74 687.21 170.93 693.92 180.13 700.38 189.32 706.38 198.52 711.73 207.71 716.26 216.91 719.83 226.1 722.31 235.29 723.64 244.49 723.77 253.68 722.7 262.88 720.46 272.07 717.12 281.27 712.78 290.46 707.6 299.66 701.72 308.85 695.34 318.05 688.67 327.24 681.91 336.44 675.28 345.63 668.99 354.83 663.25 364.02 658.23 373.22 654.09 382.41 650.97 391.61 648.97 400.8 648.14 410 648.53 419.19 650.1 428.39 652.82 437.58 656.6 446.78 661.31 455.97 666.82 465.17 672.93 474.36 679.46 483.56 686.19 492.75 692.92 501.95 699.43 511.14 705.51 520.34 710.97 529.53 715.64 538.73 719.36 547.92 722.01 557.11 723.52 566.31 723.83 575.5 722.94 584.7 720.87 593.89 717.69 603.09 713.49 612.28 708.43 621.48 702.64 630.67 696.33 639.87 689.69 649.06 682.93 658.26 676.26 667.45 669.91 676.65 664.07 685.84 658.93 695.04 648.76 704.87 634.37 695.86 625.88 685.34 617.38 674.89 608.88 665.41 600.38 657.75 583.38 651.91 566.39 655.22 557.89 661.91 549.39 670.71 540.89 680.86 532.39 691.47 523.9 701.59 515.4 710.33 506.9 716.94 498.4 720.82 489.9 721.63 481.4 719.3 472.91 714.03 464.41 706.3 455.91 696.78 447.41 686.31 438.91 675.81 430.41 666.2 421.92 658.35 413.42 652.92 396.42 652.58 379.42 661.2 370.93 669.85 362.43 679.91 353.93 690.51 345.43 700.72 336.93 709.62 328.43 716.45 311.44 720.11 294.44 714.62 285.94 707.08 277.44 697.69 268.95 687.27 260.45 676.73 251.95 667.01 243.45 658.97 226.46 652.08 209.46 654.29 200.96 660.52 192.46 668.99 183.96 678.97 175.47 689.56 166.97 699.83 158.47 708.89 149.97 715.93 141.47 720.34 132.97 721.71 124.48 719.94 112.04 706.95 108.9 689.57 109.87 680.43 110.97 671.28 112.16 662.14 113.42 653 114.69 643.86 115.94 634.71 117.13 625.57 118.22 616.43 119.17 607.29 119.96 598.14 120.56 589 120.95 579.86 121.12 570.72 121.06 561.57 120.77 552.43 120.27 543.29 119.57 534.14 118.7 525 117.67 515.86 116.52 506.72 115.3 497.57 114.03 488.43 112.76 479.29 111.54 470.15 110.39 461 109.35 451.86 108.46 442.72 107.75 433.58 107.24 424.43 106.94 415.29 106.87 406.15 107.03 397.01 107.4 387.86 107.99 378.72 108.77 369.58 109.71 360.44 110.8 351.29 111.98 342.15 113.23 333.01 114.5 323.87 115.75 314.72 116.95 305.58 118.06 296.44 119.04 287.3 119.85 278.15 120.48 269.01 120.9 259.87 121.1 250.73 121.08 241.58 120.83 232.44 120.36 223.3 119.69 214.15 118.84 205.01 117.83 195.87 116.7 186.73 115.49 177.58 114.22 168.44 112.95 159.3 111.72 150.16 110.55 141.01 109.5 131.87 108.59 122.73" stroke-dasharray="1 4" transform="rotate(0, 400, 400)" opacity="0.05"></path><path d="M120.38 137.55Q137.01 139.68 153.64 137.12 170.28 130.68 186.91 122.44 203.55 115 220.18 110.76 236.82 111.07 253.45 115.82 270.09 123.5 286.72 131.66 303.36 137.69 319.99 139.67 336.63 136.96 353.26 130.43 369.89 122.16 386.53 114.8 403.16 110.7 419.8 111.16 436.43 116.04 453.07 123.78 469.7 131.91 486.34 137.83 502.97 139.65 519.61 136.79 536.24 130.17 552.88 121.89 569.51 114.6 586.14 110.64 602.78 111.25 619.41 116.26 636.05 124.05 652.68 132.15 664.05 149.65 676.71 167.15 689.16 184.65 699.95 202.16 707.83 219.66 711.86 237.16 711.58 254.66 707.02 272.16 698.71 289.66 687.63 307.17 675.07 324.67 662.5 342.17 651.39 359.67 643.05 377.17 638.44 394.67 638.11 412.17 642.1 429.68 649.93 447.18 660.7 464.68 673.14 482.18 685.8 499.68 697.19 517.18 705.99 534.68 711.16 552.19 712.1 569.69 708.69 587.19 701.35 604.69 690.92 622.19 678.63 639.69 665.91 657.2 654.26 674.7 645.03 692.2 628.58 672.73 612.14 653.99 595.69 641.96 579.25 640.47 562.8 650.01 546.36 667.53 529.91 687.43 513.47 703.36 497.02 710.23 480.58 705.85 464.13 691.61 447.69 672.07 431.24 653.46 414.8 641.73 398.35 640.62 381.91 650.49 365.46 668.19 349.02 688.06 332.58 703.76 316.13 710.27 299.69 705.52 283.24 691.02 266.8 671.4 250.35 652.93 233.91 641.51 217.46 640.78 201.02 650.97 184.57 668.84 168.13 688.67 151.68 704.14 135.24 710.29 118.79 705.18 120.7 687.44 123.11 669.7 125.75 651.96 128.29 634.22 130.45 616.49 131.97 598.75 132.68 581.01 132.48 563.27 131.41 545.53 129.59 527.79 127.23 510.06 124.61 492.32 122.04 474.58 119.81 456.84 118.18 439.1 117.36 421.36 117.43 403.63 118.38 385.89 120.11 368.15 122.41 350.41 125.01 332.67 127.61 314.93 129.9 297.19 131.62 279.46 132.57 261.72 132.63 243.98 131.79 226.24 130.16 208.5 127.93 190.76 125.35 173.03 122.73 155.29 120.38 137.55" stroke-dasharray="5 10" transform="rotate(4.04, 400, 400)" opacity="0.09"></path><path d="M132.59 150.85Q148.73 150.07 164.87 145.13 181.01 137.5 197.14 129.43 213.28 123.29 229.42 120.9 245.55 122.96 261.69 128.87 277.83 136.88 293.97 144.63 310.1 149.83 326.24 150.95 342.38 147.66 358.51 140.93 374.65 132.74 390.79 125.52 406.92 121.38 423.06 121.55 439.2 125.99 455.34 133.37 471.47 141.53 487.61 148.06 503.75 151.03 519.88 149.56 536.02 144.1 552.16 136.24 568.3 128.31 584.43 122.65 600.57 120.92 616.71 123.64 632.84 130.01 648.98 138.13 660.64 154.72 672.66 171.31 683.74 187.9 692.7 204.49 698.56 221.07 700.68 237.66 698.85 254.25 693.26 270.84 684.5 287.42 673.54 304.01 661.55 320.6 649.81 337.19 639.61 353.77 632.05 370.36 627.92 386.95 627.7 403.54 631.38 420.13 638.59 436.71 648.54 453.3 660.16 469.89 672.19 486.48 683.34 503.06 692.4 519.65 698.39 536.24 700.67 552.83 699 569.41 693.55 586 684.9 602.59 674.01 619.18 662.03 635.77 650.26 652.35 639.98 668.94 624.06 650.15 608.14 635.45 592.22 629.16 576.3 633.15 560.38 646.24 544.46 664.56 528.54 682.72 512.62 695.35 496.7 698.74 480.78 691.87 464.86 676.79 448.94 657.93 433.03 640.86 417.11 630.61 401.19 630.21 385.27 639.78 369.35 656.48 353.43 675.4 337.51 690.96 321.59 698.56 305.67 695.97 289.75 683.95 273.83 666.04 257.91 647.53 241.99 633.87 226.07 629.1 210.15 634.62 194.23 648.81 178.31 667.47 162.39 685.11 139.68 688.87 135.55 664.12 138.26 647.01 140.73 629.9 142.69 612.79 143.92 595.68 144.3 578.58 143.79 561.47 142.43 544.36 140.38 527.25 137.85 510.14 135.13 493.03 132.49 475.92 130.24 458.81 128.61 441.7 127.77 424.6 127.83 407.49 128.76 390.38 130.47 373.27 132.78 356.16 135.44 339.05 138.16 321.94 140.64 304.83 142.62 287.72 143.89 270.62 144.3 253.51 143.82 236.4 142.5 219.29 140.47 202.18 137.96 185.07 135.23 167.96 132.59 150.85" stroke-dasharray="2 5" transform="rotate(8.08, 400, 400)" opacity="0.13"></path><path d="M145.21 162.24Q160.86 158.71 176.5 152.01 192.14 143.94 207.78 136.71 223.42 132.26 239.07 131.82 254.71 135.49 270.35 142.29 285.99 150.36 301.64 157.52 317.28 161.83 332.92 162.1 348.56 158.28 364.21 151.39 379.85 143.31 395.49 136.23 411.13 132.07 426.77 131.97 442.42 135.94 458.06 142.91 473.7 150.99 489.34 157.99 504.99 162 520.63 161.94 536.27 157.82 551.91 150.76 567.56 142.68 583.2 135.77 598.84 131.91 614.48 132.14 630.12 136.4 645.77 143.54 657.12 159.22 668.07 174.9 677.53 190.58 684.55 206.26 688.44 221.94 688.81 237.62 685.63 253.31 679.22 268.99 670.2 284.67 659.48 300.35 648.12 316.03 637.23 331.71 627.92 347.39 621.08 363.07 617.42 378.75 617.28 394.43 620.69 410.11 627.29 425.79 636.45 441.47 647.25 457.15 658.62 472.83 669.43 488.51 678.61 504.19 685.25 519.87 688.69 535.55 688.59 551.24 684.96 566.92 678.16 582.6 668.86 598.28 657.99 613.96 646.63 629.64 635.89 645.32 620.48 629.45 605.07 619.97 589.66 619.45 574.25 628.05 558.84 643.41 543.43 661.37 528.02 677.06 512.61 686.22 497.2 686.36 481.79 677.44 466.38 661.89 450.97 643.92 435.56 628.41 420.15 619.58 404.74 619.82 389.33 629.06 373.92 644.8 358.51 662.76 343.1 678.08 327.69 686.58 312.29 685.97 296.88 676.4 281.47 660.49 266.06 642.54 250.65 627.43 235.24 619.25 219.83 620.24 204.42 630.12 189.01 646.21 173.6 664.14 151.81 674.76 148.23 654.09 150.91 637.69 153.2 621.3 154.88 604.9 155.77 588.51 155.8 572.11 154.95 555.72 153.31 539.32 151.05 522.93 148.38 506.53 145.58 490.14 142.92 473.74 140.66 457.35 139.03 440.95 138.19 424.56 138.22 408.16 139.13 391.77 140.81 375.37 143.11 358.98 145.79 342.58 148.59 326.19 151.24 309.79 153.46 293.4 155.04 277 155.83 260.61 155.73 244.21 154.77 227.82 153.04 211.42 150.71 195.03 148.01 178.63 145.21 162.24" stroke-dasharray="9 7" transform="rotate(12.12, 400, 400)" opacity="0.16"></path><path d="M158.17 171.54Q173.31 165.8 188.45 158.13 203.59 150.42 218.73 144.59 233.87 142.11 249.01 143.57 264.15 148.63 279.29 156.01 294.43 163.89 309.57 170.31 324.71 173.65 339.85 173.11 354.99 168.8 370.13 161.8 385.27 153.86 400.41 146.94 415.55 142.78 430.69 142.4 445.83 145.9 460.97 152.42 476.11 160.32 491.25 167.64 506.39 172.56 521.53 173.86 536.67 171.21 551.81 165.27 566.95 157.52 582.09 149.89 597.23 144.28 612.37 142.08 627.51 143.84 642.65 149.12 653.2 163.93 662.72 178.74 670.37 193.55 675.44 208.36 677.47 223.16 676.29 237.97 671.98 252.78 664.96 267.59 655.84 282.4 645.48 297.21 634.79 312.02 624.76 326.83 616.29 341.64 610.16 356.44 606.92 371.25 606.87 386.06 610 400.87 616.04 415.68 624.44 430.49 634.43 445.3 645.11 460.11 655.5 474.92 664.67 489.72 671.78 504.53 676.19 519.34 677.49 534.15 675.56 548.96 670.59 563.77 663.02 578.58 653.55 593.39 643.02 608.2 632.4 623 617.49 611.7 602.59 607.93 587.68 612.64 572.78 624.66 557.87 640.99 542.97 657.57 528.06 670.27 513.16 675.94 498.25 673.16 483.35 662.63 468.44 646.96 453.54 630.06 438.63 616.12 423.73 608.63 408.82 609.44 393.91 618.35 379.01 633.14 364.1 650.14 349.2 665.11 334.29 674.33 319.39 675.5 304.48 668.33 289.58 654.61 274.67 637.75 259.77 621.95 244.86 611.13 229.96 608 215.05 613.32 200.15 625.78 185.24 642.27 164.3 657.03 161.08 639.75 163.62 624.15 165.64 608.54 166.97 592.93 167.48 577.32 167.14 561.72 165.96 546.11 164.06 530.5 161.61 514.9 158.83 499.29 155.97 483.68 153.3 468.07 151.06 452.47 149.44 436.86 148.6 421.25 148.62 405.64 149.48 390.04 151.12 374.43 153.39 358.82 156.07 343.22 158.93 327.61 161.7 312 164.13 296.39 166.01 280.79 167.16 265.18 167.48 249.57 166.94 233.96 165.58 218.36 163.54 202.75 160.99 187.14 158.17 171.54" stroke-dasharray="5 1" transform="rotate(16.16, 400, 400)" opacity="0.20"></path><path d="M171.38 178.88Q186 171.74 200.62 163.97 215.24 157.34 229.86 153.37 244.48 152.94 259.1 156.16 273.72 162.29 288.34 169.95 302.96 177.39 317.58 182.93 332.2 185.29 346.83 183.96 361.45 179.23 376.07 172.17 390.69 164.39 405.31 157.66 419.93 153.5 434.55 152.86 449.17 155.89 463.79 161.89 478.41 169.51 493.03 177.01 507.65 182.69 522.27 185.26 536.9 184.13 551.52 179.57 566.14 172.6 580.76 164.81 595.38 157.98 610 153.65 624.62 152.8 639.24 155.63 648.56 169.63 656.43 183.62 662.19 197.62 665.36 211.61 665.69 225.61 663.15 239.6 657.95 253.59 650.51 267.59 641.46 281.58 631.54 295.58 621.58 309.57 612.39 323.57 604.75 337.56 599.28 351.56 596.43 365.55 596.45 379.55 599.33 393.54 604.83 407.54 612.49 421.53 621.69 435.53 631.66 449.52 641.57 463.51 650.61 477.51 658.02 491.5 663.2 505.5 665.71 519.49 665.34 533.49 662.13 547.48 656.35 561.48 648.46 575.47 639.13 589.47 629.12 603.46 614.73 597.62 600.33 599.37 585.94 608.3 571.54 622.38 557.14 638.42 542.75 652.78 528.35 662.18 513.96 664.5 499.56 659.21 485.16 647.51 470.77 632.06 456.37 616.36 441.98 603.99 427.58 597.76 413.18 599.07 398.79 607.63 384.39 621.51 370 637.54 355.6 652.08 341.21 661.83 326.81 664.58 312.41 659.7 298.02 648.3 283.62 632.96 269.23 617.19 254.83 604.54 240.43 597.91 226.04 598.79 211.64 606.99 197.25 620.64 176.71 621.84 177.99 592.3 178.91 577.54 179.02 562.77 178.3 548.01 176.8 533.24 174.66 518.48 172.05 503.71 169.19 488.95 166.31 474.18 163.65 459.42 161.44 444.65 159.85 429.89 159.02 415.12 159.01 400.36 159.84 385.59 161.42 370.83 163.62 356.06 166.28 341.3 169.15 326.53 172.02 311.77 174.63 297 176.78 282.24 178.28 267.47 179.02 252.71 178.92 237.94 178 223.18 176.34 208.41 174.07 193.65 171.38 178.88" stroke-dasharray="6 8" transform="rotate(20.200000000000003, 400, 400)" opacity="0.24"></path><path d="M184.72 184.68Q198.8 177.08 212.87 170.08 226.95 165.13 241.03 163.25 255.1 164.82 269.18 169.53 283.26 176.4 297.34 184.01 311.41 190.79 325.49 195.34 339.57 196.73 353.64 194.66 367.72 189.56 381.8 182.49 395.87 174.91 409.95 168.37 424.03 164.23 438.11 163.35 452.18 165.9 466.26 171.36 480.34 178.61 494.41 186.14 508.49 192.4 522.57 196.1 536.65 196.48 550.72 193.45 564.8 187.65 578.88 180.27 592.95 172.83 607.03 166.87 621.11 163.62 635.18 163.75 642.97 177 649.03 190.25 652.91 203.5 654.32 216.75 653.14 230 649.48 243.25 643.6 256.5 635.94 269.75 627.09 283 617.7 296.25 608.49 309.5 600.14 322.75 593.28 336 588.43 349.25 585.96 362.5 586.04 375.75 588.67 389 593.65 402.25 600.62 415.5 609.04 428.75 618.29 442 627.66 455.25 636.46 468.5 644.02 481.75 649.77 495 653.29 508.25 654.31 521.5 652.74 534.75 648.72 548 642.53 561.25 634.66 574.5 625.68 587.75 611.81 587.49 597.93 593.94 584.06 605.77 570.19 620.53 556.32 635.19 542.45 646.71 528.57 652.71 514.7 651.96 500.83 644.61 486.96 632.19 473.08 617.24 459.21 602.86 445.34 592.02 431.47 586.96 417.59 588.71 403.72 596.92 389.85 609.9 375.98 624.95 362.1 638.99 348.23 649.1 334.36 653.21 320.49 650.46 306.61 641.42 292.74 627.96 278.87 612.85 265 599.22 251.12 589.88 237.25 586.75 223.38 590.49 209.51 600.31 189.51 601.2 190.18 573.71 190.67 559.82 190.35 545.92 189.26 532.03 187.47 518.13 185.11 504.24 182.38 490.34 179.46 476.45 176.59 462.56 173.97 448.66 171.8 434.77 170.25 420.87 169.43 406.98 169.41 393.09 170.18 379.19 171.69 365.3 173.82 351.4 176.42 337.51 179.28 323.62 182.2 309.72 184.95 295.83 187.34 281.93 189.16 268.04 190.3 254.15 190.67 240.25 190.23 226.36 189.03 212.46 187.14 198.57 184.72 184.68" stroke-dasharray="10 2" transform="rotate(24.24, 400, 400)" opacity="0.28"></path><path d="M198.07 189.56Q211.57 182.48 225.07 176.99 238.57 174.11 252.08 174.38 265.58 177.76 279.08 183.6 292.59 190.82 306.09 198.07 319.59 204.01 333.1 207.51 346.6 207.94 360.1 205.2 373.61 199.81 387.11 192.77 400.61 185.41 414.11 179.09 427.62 174.98 441.12 173.87 454.62 175.95 468.13 180.84 481.63 187.63 495.13 195.04 508.64 201.7 522.14 206.36 535.64 208.15 549.15 206.74 562.65 202.4 576.15 195.92 589.66 188.53 603.16 181.6 616.66 176.42 630.16 173.96 636.23 186.53 640.45 199.11 642.53 211.69 642.34 224.26 639.88 236.84 635.33 249.41 628.99 261.99 621.29 274.57 612.76 287.14 603.98 299.72 595.53 312.29 588 324.87 581.89 337.45 577.62 350.02 575.48 362.6 575.62 375.18 578.02 387.75 582.52 400.33 588.82 412.9 596.49 425.48 605.01 438.06 613.79 450.63 622.25 463.21 629.82 475.79 635.97 488.36 640.28 500.94 642.48 513.51 642.4 526.09 640.06 538.67 635.6 551.24 629.35 563.82 621.71 576.4 608.38 581.1 595.05 591.01 581.73 604.28 568.4 618.42 555.07 630.81 541.74 639.13 528.42 641.82 515.09 638.39 501.76 629.47 488.44 616.73 475.11 602.55 461.78 589.57 448.45 580.22 435.13 576.23 421.8 578.36 408.47 586.21 395.15 598.31 381.82 612.4 368.49 625.86 355.17 636.17 341.84 641.41 328.51 640.6 315.18 633.89 301.86 622.54 288.53 608.66 275.2 594.84 261.88 583.66 248.55 577.21 235.22 576.69 221.89 582.2 202.27 580.08 202.15 554.17 202.18 541.15 201.44 528.13 200 515.11 197.95 502.08 195.42 489.06 192.6 476.04 189.66 463.02 186.82 450 184.26 436.98 182.15 423.95 180.65 410.93 179.85 397.91 179.8 384.89 180.52 371.87 181.94 358.85 183.98 345.82 186.5 332.8 189.32 319.78 192.25 306.76 195.1 293.74 197.67 280.72 199.79 267.69 201.31 254.67 202.13 241.65 202.19 228.63 201.5 215.61 200.09 202.59 198.07 189.56" stroke-dasharray="7 3" transform="rotate(28.28, 400, 400)" opacity="0.32"></path><path d="M211.27 194.35Q224.17 188.65 237.06 185.18 249.96 184.54 262.85 186.83 275.75 191.66 288.64 198.22 301.54 205.42 314.43 212.04 327.33 216.98 340.23 219.4 353.12 218.91 366.02 215.57 378.91 209.96 391.81 203.01 404.7 195.89 417.6 189.8 430.49 185.75 443.39 184.42 456.28 186.05 469.18 190.35 482.07 196.6 494.97 203.76 507.87 210.62 520.76 216.03 533.66 219.1 546.55 219.29 559.45 216.58 572.34 211.42 585.24 204.69 598.13 197.5 619.61 194.75 630.62 210.39 631.06 222.36 629.48 234.32 625.98 246.29 620.78 258.25 614.19 270.22 606.62 282.18 598.51 294.15 590.38 306.11 582.71 318.08 575.97 330.04 570.58 342.01 566.85 353.97 565.02 365.94 565.21 377.9 567.39 389.87 571.43 401.83 577.1 413.8 584.04 425.76 591.82 437.73 599.99 449.69 608.03 461.66 615.47 473.62 621.83 485.59 626.75 497.55 629.91 509.52 631.13 521.48 630.32 533.45 627.55 545.41 622.98 557.38 616.88 569.34 604.13 577.83 591.37 589.7 578.62 602.96 565.87 615.39 553.11 624.9 540.36 629.9 527.6 629.54 514.85 623.9 502.1 613.91 489.34 601.24 476.59 588.04 463.83 576.5 451.08 568.57 438.33 565.58 425.57 568.02 412.82 575.49 400.06 586.74 387.31 599.88 374.56 612.7 361.8 623.05 349.05 629.2 336.29 630.12 323.54 625.64 310.78 616.53 298.03 604.31 285.28 591.03 272.52 578.92 259.77 570.01 247.01 565.79 234.26 566.98 216.22 572.54 212.57 559.54 213.56 547.37 213.85 535.19 213.41 523.02 212.28 510.85 210.52 498.68 208.25 486.5 205.59 474.33 202.71 462.16 199.79 449.98 197 437.81 194.52 425.64 192.49 413.46 191.04 401.29 190.26 389.12 190.2 376.94 190.85 364.77 192.19 352.6 194.12 340.43 196.53 328.25 199.27 316.08 202.18 303.91 205.08 291.73 207.79 279.56 210.15 267.39 212.01 255.21 213.26 243.04 213.82 230.87 213.67 218.69 212.8 206.52 211.27 194.35" stroke-dasharray="2 8" transform="rotate(32.32, 400, 400)" opacity="0.35"></path><path d="M224.19 199.88Q236.44 196.19 248.7 195.01 260.95 196.53 273.2 200.52 285.45 206.38 297.71 213.22 309.96 220.04 322.21 225.8 334.46 229.64 346.72 230.98 358.97 229.63 371.22 225.79 383.47 220.03 395.73 213.21 407.98 206.37 420.23 200.51 432.48 196.53 444.74 195.01 456.99 196.19 469.24 199.89 481.49 205.55 493.75 212.33 506 219.2 518.25 225.15 530.5 229.28 542.76 230.96 555.01 229.95 567.26 226.4 579.51 220.85 591.77 214.11 611.4 209.89 619.54 223.97 618.54 235.37 615.83 246.77 611.55 258.17 605.93 269.57 599.28 280.97 591.96 292.37 584.38 303.77 576.93 315.17 570.03 326.57 564.06 337.97 559.33 349.37 556.11 360.77 554.57 372.17 554.79 383.56 556.76 394.96 560.38 406.36 565.45 417.76 571.68 429.16 578.75 440.56 586.27 451.96 593.83 463.36 601.01 474.76 607.44 486.16 612.75 497.56 616.66 508.96 618.96 520.36 619.52 531.76 618.31 543.16 615.39 554.56 610.94 565.96 598.79 576.7 586.64 588.98 574.49 600.97 562.34 610.86 550.19 617.18 538.04 618.97 525.89 615.97 513.74 608.63 501.59 598.05 489.44 585.81 477.29 573.75 465.14 563.67 452.99 557.09 440.84 554.99 428.69 557.69 416.54 564.78 404.39 575.2 392.24 587.39 380.09 599.51 367.95 609.77 355.8 616.61 343.65 619.01 331.5 616.61 319.35 609.78 307.2 599.53 295.05 587.4 282.9 575.21 270.75 564.79 258.6 557.7 246.45 554.99 229.08 554.69 224.97 540.92 225.43 529.55 225.22 518.19 224.34 506.82 222.84 495.45 220.81 484.08 218.36 472.71 215.61 461.35 212.72 449.98 209.84 438.61 207.14 427.24 204.75 415.87 202.82 404.51 201.43 393.14 200.68 381.77 200.59 370.4 201.18 359.03 202.42 347.67 204.22 336.3 206.51 324.93 209.15 313.56 211.99 302.19 214.89 290.83 217.69 279.46 220.24 268.09 222.38 256.72 224.02 245.35 225.06 233.99 225.44 222.62 225.15 211.25 224.19 199.88" stroke-dasharray="10 5" transform="rotate(36.36, 400, 400)" opacity="0.39"></path><path d="M236.68 206.96Q248.26 205.6 259.84 206.69 271.41 210.07 282.99 215.31 294.56 221.71 306.14 228.4 317.71 234.51 329.29 239.23 340.86 241.92 352.44 242.22 364.01 240.1 375.59 235.84 387.16 230.01 398.74 223.38 410.31 216.82 421.89 211.23 433.47 207.33 445.04 205.64 456.62 206.4 468.19 209.49 479.77 214.51 491.34 220.8 502.92 227.51 514.49 233.75 526.07 238.69 537.64 241.68 549.22 242.32 560.79 240.53 572.37 236.53 583.95 230.87 603.41 238.33 601.48 261.11 596.66 271.97 590.84 282.83 584.31 293.69 577.37 304.55 570.37 315.4 563.64 326.26 557.51 337.12 552.26 347.98 548.16 358.84 545.41 369.7 544.12 380.55 544.38 391.41 546.15 402.27 549.37 413.13 553.87 423.99 559.43 434.85 565.8 445.7 572.65 456.56 579.67 467.42 586.51 478.28 592.84 489.14 598.36 500 602.81 510.85 605.96 521.71 607.66 532.57 607.84 543.43 606.49 554.29 603.66 565.15 592.15 576.51 580.64 587.8 569.12 597.52 557.61 604.39 546.1 607.47 534.59 606.38 523.08 601.24 511.57 592.75 500.05 582.03 488.54 570.5 477.03 559.71 465.52 551.09 454.01 545.77 442.49 544.47 430.98 547.37 419.47 554.07 407.96 563.68 396.45 574.93 384.94 586.33 373.42 596.35 361.91 603.66 350.4 607.3 338.89 606.77 327.38 602.15 315.87 594.06 304.35 583.56 292.84 572.06 281.33 561.08 269.82 552.09 258.31 546.27 241.61 540.26 236.99 525.5 236.92 514.88 236.22 504.26 234.93 493.65 233.12 483.03 230.87 472.41 228.28 461.79 225.49 451.17 222.63 440.56 219.83 429.94 217.24 419.32 214.97 408.7 213.13 398.08 211.82 387.46 211.09 376.85 210.99 366.23 211.51 355.61 212.64 344.99 214.31 334.37 216.45 323.76 218.96 313.14 221.7 302.52 224.56 291.9 227.39 281.28 230.05 270.67 232.43 260.05 234.39 249.43 235.86 238.81 236.75 228.19 237.03 217.58 236.68 206.96" stroke-dasharray="11 7" transform="rotate(40.400000000000006, 400, 400)" opacity="0.43"></path><path d="M248.63 216.19Q259.49 217.16 270.36 220.21 281.23 225 292.09 230.95 302.96 237.38 313.83 243.53 324.69 248.68 335.56 252.23 346.43 253.76 357.29 253.1 368.16 250.32 379.03 245.74 389.89 239.91 400.76 233.5 411.63 227.27 422.49 221.94 433.36 218.14 444.23 216.31 455.09 216.67 465.96 219.17 476.83 223.52 487.69 229.22 498.56 235.59 509.43 241.89 520.29 247.39 531.16 251.43 542.03 253.55 552.89 253.5 563.76 251.29 574.63 247.17 590.7 254.94 586.56 276.58 581.44 286.89 575.62 297.21 569.35 307.53 562.9 317.85 556.54 328.17 550.53 338.49 545.14 348.81 540.58 359.13 537.07 369.44 534.73 379.76 533.68 390.08 533.96 400.4 535.55 410.72 538.39 421.04 542.36 431.36 547.29 441.68 552.97 451.99 559.15 462.31 565.59 472.63 572 482.95 578.11 493.27 583.67 503.59 588.44 513.91 592.21 524.23 594.83 534.54 596.18 544.86 596.21 555.18 594.92 565.5 584.08 575.98 573.24 585.18 562.4 592.01 551.56 595.68 540.71 595.76 529.87 592.25 519.03 585.54 508.19 576.43 497.35 565.98 486.51 555.42 475.67 545.98 464.83 538.76 453.98 534.61 443.14 534.02 432.3 537.05 421.46 543.35 410.62 552.19 399.78 562.52 388.94 573.14 378.1 582.81 367.25 590.4 356.41 595.01 345.57 596.11 334.73 593.57 323.89 587.69 313.05 579.15 302.21 568.95 291.36 558.3 280.52 548.42 269.68 540.49 253.7 529.65 248.55 513.96 247.96 504.04 246.82 494.11 245.18 484.18 243.11 474.26 240.7 464.33 238.04 454.41 235.25 444.48 232.46 434.56 229.77 424.63 227.3 414.7 225.16 404.78 223.44 394.85 222.2 384.93 221.51 375 221.39 365.07 221.84 355.15 222.86 345.22 224.39 335.3 226.36 325.37 228.71 315.45 231.32 305.52 234.08 295.59 236.89 285.67 239.61 275.74 242.14 265.82 244.37 255.89 246.2 245.96 247.55 236.04 248.37 226.11 248.63 216.19" stroke-dasharray="5 4" transform="rotate(44.44, 400, 400)" opacity="0.47"></path><path d="M259.91 227.91Q270.04 230.89 280.17 235.41 290.31 241.01 300.44 247.12 310.57 253.12 320.7 258.38 330.83 262.39 340.96 264.72 351.09 265.14 361.22 263.61 371.36 260.27 381.49 255.49 391.62 249.73 401.75 243.59 411.88 237.7 422.01 232.65 432.14 228.97 442.27 227.02 452.41 227.01 462.54 228.94 472.67 232.61 482.8 237.64 492.93 243.53 503.06 249.66 513.19 255.43 523.32 260.23 533.46 263.58 543.59 265.13 553.72 264.73 563.85 262.42 576.96 271.57 571.2 292.22 566 301.98 560.36 311.74 554.48 321.5 548.58 331.26 542.89 341.02 537.6 350.78 532.92 360.54 529.02 370.3 526.04 380.06 524.09 389.82 523.25 399.58 523.55 409.34 524.96 419.09 527.46 428.85 530.93 438.61 535.25 448.37 540.27 458.13 545.79 467.89 551.62 477.65 557.53 487.41 563.32 497.17 568.76 506.93 573.65 516.69 577.82 526.45 581.11 536.21 583.39 545.97 584.59 555.73 584.66 565.49 574.52 573.91 564.38 580.29 554.24 583.99 544.1 584.63 533.96 582.14 523.82 576.78 513.68 569.1 503.54 559.87 493.4 550.04 483.26 540.62 473.12 532.56 462.98 526.69 452.84 523.61 442.7 523.62 432.56 526.74 422.41 532.64 412.27 540.72 402.13 550.15 391.99 559.97 381.85 569.19 371.71 576.85 361.57 582.19 351.43 584.64 341.29 583.97 331.15 580.24 321.01 573.83 310.87 565.39 300.73 555.8 290.59 546.02 280.45 537.05 270.31 529.81 260.17 525.04 260.13 515.76 259.58 506.47 258.52 497.19 257 487.9 255.08 478.62 252.82 469.33 250.3 460.05 247.63 450.76 244.9 441.47 242.2 432.19 239.65 422.9 237.33 413.62 235.34 404.33 233.73 395.05 232.58 385.76 231.92 376.48 231.79 367.19 232.18 357.91 233.08 348.62 234.45 339.33 236.26 330.05 238.42 320.76 240.86 311.48 243.49 302.19 246.22 292.91 248.93 283.62 251.54 274.34 253.95 265.05 256.05 255.77 257.79 246.48 259.09 237.19 259.91 227.91" stroke-dasharray="8 8" transform="rotate(48.48, 400, 400)" opacity="0.51"></path><path d="M270.47 242.14Q279.85 246.56 289.22 251.9 298.6 257.69 307.97 263.42 317.35 268.59 326.72 272.73 336.1 275.49 345.47 276.61 354.85 276.01 364.22 273.73 373.6 269.98 382.97 265.09 392.35 259.48 401.72 253.65 411.09 248.12 420.47 243.37 429.84 239.82 439.22 237.78 448.59 237.44 457.97 238.82 467.34 241.8 476.72 246.12 486.09 251.39 495.47 257.17 504.84 262.92 514.22 268.16 523.59 272.41 532.96 275.3 542.34 276.58 551.71 276.14 562.33 287.32 555.53 307.04 550.45 316.2 545.13 325.37 539.74 334.54 534.46 343.7 529.44 352.87 524.86 362.03 520.86 371.2 517.56 380.36 515.08 389.53 513.48 398.7 512.82 407.86 513.13 417.03 514.39 426.19 516.56 435.36 519.57 444.53 523.32 453.69 527.71 462.86 532.58 472.02 537.78 481.19 543.15 490.35 548.52 499.52 553.71 508.69 558.55 517.85 562.9 527.02 566.62 536.18 569.59 545.35 567.6 561.9 554.08 572.59 544.66 573.28 535.25 571.3 525.84 566.82 516.42 560.25 507.01 552.16 497.6 543.26 488.18 534.34 478.77 526.17 469.36 519.5 459.94 514.89 450.53 512.76 441.12 513.29 431.7 516.44 422.29 521.92 412.88 529.27 403.46 537.82 394.05 546.83 384.63 555.51 375.22 563.08 365.81 568.88 356.39 572.4 346.98 573.33 337.57 571.58 328.15 567.32 318.74 560.92 309.33 552.94 299.91 544.08 290.5 535.12 281.09 526.86 271.67 520.02 271.08 511.34 270.04 502.65 268.59 493.97 266.77 485.29 264.63 476.6 262.25 467.92 259.7 459.24 257.07 450.55 254.44 441.87 251.88 433.18 249.49 424.5 247.34 415.82 245.5 407.13 244.02 398.45 242.57 381.08 242.51 363.71 243.29 355.03 244.52 346.34 246.13 337.66 248.1 328.98 250.34 320.29 252.8 311.61 255.4 302.92 258.04 294.24 260.65 285.56 263.15 276.87 265.44 268.19 267.47 259.5 269.17 250.82 270.47 242.14" stroke-dasharray="0 9" transform="rotate(52.52, 400, 400)" opacity="0.54"></path><path d="M280.28 258.53Q297.49 269.17 314.7 279.46 331.9 286.37 349.11 287.86 366.32 283.49 383.52 274.55 400.73 263.68 417.94 254.08 435.15 248.59 452.35 248.82 469.56 254.7 486.77 264.51 503.98 275.35 521.18 284.01 538.39 287.95 555.6 286.01 548.54 303.06 539.69 320.12 530.02 337.18 520.56 354.23 512.33 371.29 506.22 388.34 502.9 405.4 502.71 422.46 505.69 439.51 511.5 456.57 519.53 473.62 528.9 490.68 538.6 507.74 547.6 524.79 554.9 541.85 559.74 558.9 542.41 561.81 525.08 555.92 507.74 542.98 490.41 526.79 473.08 512.14 455.75 503.35 438.42 503 421.09 511.21 403.76 525.55 386.42 541.79 369.09 555.14 351.76 561.66 334.43 559.44 317.1 549.12 299.77 533.75 282.44 517.86 279.92 501.65 276.12 485.45 271.44 469.24 266.38 453.03 261.51 436.82 257.33 420.61 254.3 404.41 252.75 388.2 252.85 371.99 254.58 355.78 257.76 339.57 262.04 323.37 266.97 307.16 272 290.95 276.61 274.74 280.28 258.53" stroke-dasharray="2 3" transform="rotate(56.56, 400, 400)" opacity="0.58"></path><path d="M289.34 276.45Q304.99 286.57 320.64 294.81 336.29 299.12 351.94 298.41 367.59 292.88 383.24 283.89 398.89 273.68 414.54 264.8 430.2 259.44 445.85 258.96 461.5 263.46 477.15 271.83 492.8 281.98 508.45 291.38 524.1 297.71 539.75 299.38 532.31 315.07 523.84 330.76 515.11 346.45 506.92 362.14 500 377.83 494.99 393.52 492.35 409.21 492.3 424.9 494.86 440.59 499.79 456.28 506.65 471.97 514.81 487.66 523.54 503.35 532.03 519.04 534.52 541.37 513.71 538.88 497.9 525.3 482.1 510.65 466.29 498.57 450.48 492.07 434.68 492.77 418.87 500.5 403.06 513.32 387.26 528.06 371.45 541.03 355.64 549.02 339.83 550.04 324.03 543.83 308.22 531.93 292.41 517.32 289.21 502.26 285.08 487.21 280.4 472.16 275.59 457.1 271.08 442.05 267.3 426.99 264.58 411.94 263.17 396.88 263.19 381.83 264.65 366.77 267.42 351.72 271.23 336.67 275.75 321.61 280.56 306.56 285.23 291.5 289.34 276.45" stroke-dasharray="0 8" transform="rotate(60.599999999999994, 400, 400)" opacity="0.62"></path><path d="M297.7 295Q311.79 303.45 325.89 309.12 339.98 310.85 354.08 308.27 368.17 301.92 382.26 293.11 396.36 283.65 410.45 275.51 424.54 270.35 438.64 269.25 452.73 272.43 466.82 279.24 480.92 288.27 495.01 297.65 509.1 305.45 523.2 310.06 515.87 324.31 508.1 338.56 500.47 352.8 493.56 367.05 487.88 381.29 483.87 395.54 481.82 409.78 481.88 424.03 484.06 438.28 488.19 452.52 493.96 466.77 500.93 481.01 508.58 495.26 516.34 509.5 519.62 527.65 501.35 520.67 487.08 507.58 472.81 494.99 458.54 485.49 444.28 481.06 430.01 482.59 415.74 489.78 401.47 501.15 387.21 514.34 372.94 526.63 358.67 535.49 344.41 539.09 330.14 536.68 315.87 528.76 301.6 516.97 297.95 503.1 293.7 489.22 289.17 475.35 284.7 461.48 280.63 447.6 277.27 433.73 274.86 419.86 273.58 405.98 273.55 392.11 274.74 378.24 277.09 364.36 280.4 350.49 284.43 336.62 288.89 322.74 293.42 308.87 297.7 295" stroke-dasharray="11 1" transform="rotate(64.64, 400, 400)" opacity="0.66"></path><path d="M305.46 313.16Q318.01 319.15 330.56 322.08 343.11 321.48 355.66 317.44 368.2 310.65 380.75 302.23 393.3 293.61 405.85 286.22 418.4 281.32 430.94 279.71 443.49 281.68 456.04 286.88 468.59 294.46 481.14 303.13 493.68 311.44 506.23 318 499.43 330.75 492.6 343.49 486.16 356.24 480.51 368.98 475.98 381.73 472.85 394.47 471.32 407.22 471.47 419.97 473.3 432.71 476.7 445.46 481.45 458.2 487.28 470.95 493.82 483.69 500.67 496.44 504.18 511.13 488.21 501.87 475.48 490.18 462.76 479.96 450.03 472.94 437.31 470.29 424.58 472.45 411.86 479.07 399.13 489.03 386.4 500.66 373.68 512.01 360.95 521.18 348.23 526.63 335.5 527.44 322.78 523.48 310.05 515.41 306.2 502.77 302.03 490.13 297.8 477.49 293.76 464.85 290.16 452.21 287.23 439.57 285.13 426.93 284 414.29 283.9 401.65 284.85 389.01 286.78 376.37 289.58 363.73 293.07 351.09 297.05 338.45 301.26 325.8 305.46 313.16" stroke-dasharray="3 10" transform="rotate(68.68, 400, 400)" opacity="0.70"></path><path d="M312.76 329.96Q323.79 333.13 334.81 333.49 345.84 330.99 356.86 325.97 367.89 319.09 378.92 311.27 389.94 303.54 400.97 296.94 411.99 292.34 423.02 290.35 434.04 291.24 445.07 294.89 456.09 300.81 467.12 308.22 478.15 316.14 489.17 323.5 483.21 334.72 477.47 345.94 472.24 357.15 467.78 368.37 464.28 379.59 461.93 390.81 460.84 402.03 461.05 413.25 462.57 424.47 465.31 435.68 469.14 446.9 473.88 458.12 479.31 469.34 485.15 480.56 488.44 492.59 474.56 483.08 463.37 473.41 452.18 465.69 440.98 460.93 429.79 459.77 418.59 462.36 407.4 468.36 396.2 476.97 385.01 487.04 373.81 497.25 362.62 506.22 351.42 512.77 340.23 516.03 329.04 515.56 317.84 511.42 314.04 500.08 310.14 488.74 306.32 477.4 302.79 466.06 299.69 454.72 297.19 443.37 295.4 432.03 294.41 420.69 294.27 409.35 294.99 398.01 296.52 386.67 298.8 375.32 301.72 363.98 305.13 352.64 308.87 341.3 312.76 329.96" stroke-dasharray="5 8" transform="rotate(72.72, 400, 400)" opacity="0.73"></path><path d="M319.77 344.53Q329.3 345.01 338.83 343.25 348.37 339.42 357.9 333.91 367.44 327.29 376.97 320.23 386.5 313.45 396.04 307.65 405.57 303.41 415.11 301.17 424.64 301.16 434.17 303.38 443.71 307.59 453.24 313.38 465.08 328.53 462.8 346.6 458.75 356.3 455.38 365.99 452.8 375.68 451.11 385.38 450.39 395.07 450.64 404.77 451.87 414.46 454.02 424.15 457.03 433.85 460.77 443.54 465.11 453.24 469.9 462.93 461.83 465.3 441.32 452.25 431.64 449.46 421.95 449.47 412.27 452.3 402.58 457.64 392.9 464.96 383.21 473.51 373.53 482.41 363.84 490.76 354.16 497.71 344.47 502.54 328.18 499.47 318.1 484.2 314.81 474.23 311.81 464.25 309.23 454.27 307.16 444.3 305.68 434.32 304.83 424.34 304.65 414.37 305.16 404.39 306.32 394.41 308.09 384.44 310.42 374.46 313.21 364.48 316.37 354.51 319.77 344.53" stroke-dasharray="11 10" transform="rotate(76.76, 400, 400)" opacity="0.77"></path><path d="M326.67 356.31Q342.83 351.4 358.98 341.36 375.14 329.15 391.3 318.36 407.46 312.19 423.61 312.45 439.77 319.06 455.93 330.08 448.69 346.47 443.31 362.87 440.39 379.26 440.22 395.65 442.84 412.04 447.96 428.44 450.94 446.31 430.46 439.72 414.05 439.4 397.64 446.93 381.23 460.08 364.83 474.98 348.42 487.22 332.01 493.21 326.01 476.1 320.87 458.98 317.15 441.87 315.24 424.76 315.36 407.65 317.49 390.53 321.4 373.42 326.67 356.31" stroke-dasharray="1 5" transform="rotate(80.80000000000001, 400, 400)" opacity="0.81"></path><path d="M333.69 365.08Q347.01 358.1 360.34 348.42 373.66 338.03 386.98 329.08 400.3 323.41 413.63 322.2 426.95 325.7 440.27 333.18 435.18 346.66 431.59 360.15 429.75 373.63 429.81 387.11 431.76 400.6 435.46 414.08 436.99 429.9 419.84 428.1 406.33 429.53 392.82 436.21 379.3 446.77 365.79 459.03 352.27 470.45 338.76 478.69 333.96 464.49 330 450.28 327.16 436.08 325.66 421.88 325.61 407.68 327.02 393.48 329.79 379.28 333.69 365.08" stroke-dasharray="9 10" transform="rotate(84.84, 400, 400)" opacity="0.85"></path><path d="M341.04 371.03Q351.61 363.63 362.17 355.21 372.73 346.9 383.29 339.79 393.85 334.84 404.41 332.7 418.66 340.96 420.2 358.94 419.2 369.61 419.39 380.29 420.78 390.96 423.28 401.64 423.6 415.41 409.72 417.41 399.03 419.85 388.33 425.5 377.64 433.61 366.95 443.1 349.15 451.3 339.22 438.63 337.19 427.36 336.07 416.09 335.92 404.83 336.72 393.56 338.46 382.3 341.04 371.03" stroke-dasharray="9 7" transform="rotate(88.88, 400, 400)" opacity="0.89"></path><path d="M348.95 374.76Q364.67 361.88 380.4 350.5 396.13 343.99 411.86 344.27 409.13 360.18 408.98 376.08 411.42 391.99 416.19 407.9 400.3 407.6 384.42 414.79 368.53 427.35 352.64 441.57 348.57 424.87 346.49 408.17 346.62 391.47 348.95 374.76" stroke-dasharray="9 8" transform="rotate(92.92, 400, 400)" opacity="0.92"></path><path d="M357.59 377.18Q368.03 368.57 378.46 361.22 393.64 360.28 398.56 375.06 395.82 392.12 381.25 404.07 364.42 411.04 356.9 399.15 356.74 388.17 357.59 377.18" stroke-dasharray="5 3" transform="rotate(96.96, 400, 400)" opacity="0.96"></path></g></svg>