<?xml version="1.0" standalone="no"?><svg xmlns="http://www.w3.org/2000/svg" viewBox="0 0 1440 320"><path fill="#0099ff" fill-opacity="1" d="M0,64L9.2,85.3C18.5,107,37,149,55,154.7C73.8,160,92,128,111,149.3C129.2,171,148,245,166,240C184.6,235,203,149,222,138.7C240,128,258,192,277,224C295.4,256,314,256,332,266.7C350.8,277,369,299,388,288C406.2,277,425,235,443,213.3C461.5,192,480,192,498,213.3C516.9,235,535,277,554,266.7C572.3,256,591,192,609,181.3C627.7,171,646,213,665,218.7C683.1,224,702,192,720,149.3C738.5,107,757,53,775,64C793.8,75,812,149,831,197.3C849.2,245,868,267,886,272C904.6,277,923,267,942,218.7C960,171,978,85,997,80C1015.4,75,1034,149,1052,192C1070.8,235,1089,245,1108,224C1126.2,203,1145,149,1163,122.7C1181.5,96,1200,96,1218,101.3C1236.9,107,1255,117,1274,128C1292.3,139,1311,149,1329,154.7C1347.7,160,1366,160,1385,181.3C1403.1,203,1422,245,1431,266.7L1440,288L1440,320L1430.8,320C1421.5,320,1403,320,1385,320C1366.2,320,1348,320,1329,320C1310.8,320,1292,320,1274,320C1255.4,320,1237,320,1218,320C1200,320,1182,320,1163,320C1144.6,320,1126,320,1108,320C1089.2,320,1071,320,1052,320C1033.8,320,1015,320,997,320C978.5,320,960,320,942,320C923.1,320,905,320,886,320C867.7,320,849,320,831,320C812.3,320,794,320,775,320C756.9,320,738,320,720,320C701.5,320,683,320,665,320C646.2,320,628,320,609,320C590.8,320,572,320,554,320C535.4,320,517,320,498,320C480,320,462,320,443,320C424.6,320,406,320,388,320C369.2,320,351,320,332,320C313.8,320,295,320,277,320C258.5,320,240,320,222,320C203.1,320,185,320,166,320C147.7,320,129,320,111,320C92.3,320,74,320,55,320C36.9,320,18,320,9,320L0,320Z"></path></svg>